<?xml version="1.0" encoding="UTF-8"?>
<!--Generator: Apple Native CoreSVG 341-->
<!DOCTYPE svg
PUBLIC "-//W3C//DTD SVG 1.1//EN"
       "http://www.w3.org/Graphics/SVG/1.1/DTD/svg11.dtd">
<svg version="1.1" xmlns="http://www.w3.org/2000/svg" xmlns:xlink="http://www.w3.org/1999/xlink" viewBox="0 0 573.73 417.236">
 <g>
  <rect height="417.236" opacity="0" width="573.73" x="0" y="0"/>
  <path d="M109.619 331.787L169.434 331.787C183.838 331.787 193.359 322.021 193.359 308.35L193.359 263.184C193.359 249.268 183.838 239.746 169.434 239.746L109.619 239.746C95.2148 239.746 85.6934 249.268 85.6934 263.184L85.6934 308.35C85.6934 322.021 95.2148 331.787 109.619 331.787ZM19.7754 152.832L554.199 152.832L554.199 97.4121L19.7754 97.4121ZM76.6602 417.236L497.07 417.236C548.34 417.236 573.73 392.09 573.73 341.797L573.73 75.9277C573.73 25.6348 548.34 0.244141 497.07 0.244141L76.6602 0.244141C25.6348 0.244141 0 25.6348 0 75.9277L0 341.797C0 392.09 25.6348 417.236 76.6602 417.236ZM77.1484 377.93C52.7344 377.93 39.3066 364.99 39.3066 339.6L39.3066 78.125C39.3066 52.7344 52.7344 39.5508 77.1484 39.5508L496.582 39.5508C520.508 39.5508 534.424 52.7344 534.424 78.125L534.424 339.6C534.424 364.99 520.508 377.93 496.582 377.93Z" fill="white" fill-opacity="0.85"/>
 </g>
</svg>
